<?xml version="1.0" standalone="no"?>
<!DOCTYPE svg PUBLIC "-//W3C//DTD SVG 20010904//EN"
 "http://www.w3.org/TR/2001/REC-SVG-20010904/DTD/svg10.dtd">
<svg version="1.0" xmlns="http://www.w3.org/2000/svg"
 width="949.000000pt" height="287.000000pt" viewBox="0 0 949.000000 287.000000"
 preserveAspectRatio="xMidYMid meet">

<g transform="translate(0.000000,287.000000) scale(0.100000,-0.100000)"
fill="#FFFFFF" stroke="none">
<path d="M1765 2779 c-365 -53 -669 -334 -762 -705 -27 -107 -24 -324 6 -434
82 -304 298 -540 588 -641 150 -52 -34 -49 3204 -49 2711 0 3018 2 3087 16
288 59 546 268 657 534 59 139 70 198 69 375 0 144 -3 169 -27 248 -99 323
-329 544 -665 640 l-77 22 -3010 1 c-1665 1 -3037 -2 -3070 -7z m353 -344
c122 -29 212 -96 258 -194 68 -142 29 -468 -74 -627 -109 -167 -286 -250 -476
-223 -337 47 -496 425 -327 774 76 159 190 246 356 274 80 14 195 12 263 -4z
m1032 -11 l95 -7 -10 -81 c-10 -76 -12 -81 -34 -78 -21 3 -22 2 -10 -20 6 -13
21 -36 32 -51 l20 -29 44 44 c42 41 43 43 21 48 -21 5 -23 11 -20 60 2 30 5
67 8 83 l6 27 151 0 c84 0 176 -3 205 -6 l52 -7 0 -46 c0 -25 -3 -63 -7 -84
l-6 -39 -53 4 -54 3 -133 -118 -134 -119 79 -216 c44 -120 84 -223 90 -229 6
-7 26 -13 45 -13 39 0 39 8 12 -127 l-10 -53 -158 0 c-87 0 -240 3 -340 7
l-182 6 3 76 c3 75 3 76 31 79 15 2 27 5 27 7 0 2 -9 29 -21 60 l-20 55 -56
-48 c-47 -41 -52 -47 -33 -50 20 -3 21 -7 15 -70 -3 -37 -8 -77 -11 -90 l-5
-23 -237 7 c-130 4 -238 8 -239 9 -2 1 4 39 12 86 8 46 15 85 15 87 0 1 30 2
68 2 l67 0 135 116 c74 64 150 129 167 145 l33 28 -81 185 -81 184 -54 7 -54
6 0 95 0 94 258 0 c141 0 300 -3 352 -6z m1368 -19 c1 -1 -6 -37 -16 -81 l-18
-79 -36 -3 c-24 -2 -39 -9 -42 -20 -8 -28 -156 -666 -156 -674 0 -5 16 -8 36
-8 35 0 35 -1 29 -31 -4 -17 -14 -54 -24 -82 l-16 -51 -215 2 c-280 3 -460 12
-460 24 0 5 7 40 16 78 l15 69 42 3 42 3 82 335 c45 184 83 341 83 348 0 6
-10 12 -22 12 -62 1 -64 4 -54 91 l9 79 351 -6 c193 -4 352 -8 354 -9z m1193
1 c37 -8 86 -24 109 -36 47 -24 72 -20 111 17 22 20 33 23 61 18 63 -12 63 -8
0 -194 -33 -94 -61 -173 -63 -175 -2 -1 -22 -1 -45 2 -40 4 -41 5 -58 58 -33
105 -112 160 -191 134 -43 -14 -100 -62 -119 -99 -18 -36 -80 -250 -74 -256 3
-3 121 -8 263 -12 l257 -6 -5 -48 c-16 -131 -107 -299 -201 -369 -109 -81
-212 -116 -370 -127 -82 -5 -104 -3 -167 17 -111 36 -184 96 -233 191 -33 65
-39 87 -43 160 -7 118 14 210 79 339 45 91 65 118 148 201 172 172 336 228
541 185z m1204 -18 c3 -18 25 -204 50 -413 58 -495 47 -445 96 -445 l40 0 -3
-92 -3 -93 -330 4 c-181 2 -331 4 -333 5 -1 2 1 44 4 94 l7 92 58 0 59 0 0 55
0 55 -79 0 c-44 0 -86 3 -94 6 -11 4 -30 -14 -62 -58 l-46 -63 38 -3 38 -3 -9
-84 -9 -85 -142 0 c-78 0 -189 3 -247 6 l-106 7 28 81 27 81 68 5 69 5 280
438 281 437 157 0 157 0 6 -32z m874 11 c36 -6 83 -20 103 -30 49 -25 54 -24
87 11 25 28 29 30 62 19 19 -7 38 -15 43 -19 6 -6 -105 -314 -118 -328 -2 -1
-28 7 -60 19 -55 21 -56 23 -56 61 0 80 -46 123 -130 123 -54 0 -84 -20 -95
-62 -8 -33 16 -59 111 -123 92 -63 159 -138 200 -225 102 -215 42 -427 -146
-521 -43 -22 -73 -29 -137 -32 -81 -4 -85 -4 -202 47 -66 28 -129 51 -141 51
-27 0 -58 -16 -91 -47 l-27 -24 -22 31 -22 31 41 177 c23 96 43 178 46 180 2
2 23 1 47 -2 41 -6 45 -10 72 -66 62 -129 155 -182 212 -119 26 29 3 70 -104
181 -133 140 -167 224 -142 351 34 174 165 298 335 317 33 4 62 8 64 9 2 0 34
-4 70 -10z m438 -304 c110 -72 60 -245 -71 -245 -31 0 -45 7 -77 39 -35 34
-39 44 -39 87 0 112 100 176 187 119z m-3300 -119 c1 -1 -15 -68 -35 -150
l-38 -149 -254 2 c-140 1 -256 3 -257 4 -2 2 70 257 82 295 4 11 52 12 252 6
137 -4 249 -7 250 -8z"/>
<path d="M1880 2390 c-185 -29 -296 -126 -361 -313 -50 -144 -48 -287 6 -405
34 -75 115 -156 194 -195 62 -30 72 -32 176 -32 99 0 116 3 169 28 157 73 241
201 281 427 47 266 -21 419 -210 476 -63 19 -184 25 -255 14z m145 -112 c38
-34 50 -116 36 -244 -21 -188 -90 -389 -160 -463 -39 -42 -90 -43 -117 -3 -17
23 -19 46 -18 167 1 116 6 157 27 237 34 130 94 254 141 296 44 38 56 39 91
10z"/>
<path d="M1957 2222 c-30 -33 -87 -167 -113 -267 -21 -79 -27 -125 -28 -222
-1 -136 7 -161 44 -128 81 73 177 442 150 575 -5 25 -9 48 -10 53 0 13 -27 7
-43 -11z"/>
<path d="M2590 2336 c0 -47 11 -55 70 -56 23 0 32 -17 112 -203 48 -111 90
-209 93 -218 5 -12 -42 -59 -177 -175 l-182 -159 -60 -5 c-59 -5 -60 -5 -67
-40 -4 -19 -7 -35 -6 -36 1 -1 85 -3 187 -5 l185 -4 3 38 3 37 -68 1 -68 0 29
22 c17 12 78 64 138 115 59 50 111 92 115 92 9 0 93 -217 93 -237 0 -8 -15
-13 -40 -13 -37 0 -40 -2 -40 -28 l0 -29 197 -6 c333 -12 393 -10 393 11 0 9
3 26 6 38 4 17 -1 22 -27 30 -32 9 -34 14 -126 263 -51 140 -92 255 -90 256 1
1 71 63 155 139 142 126 156 136 192 136 34 0 41 4 46 25 4 14 4 29 1 32 -4 3
-76 8 -162 11 l-155 5 0 -37 0 -36 61 0 c33 0 59 -4 57 -9 -4 -12 -228 -214
-232 -209 -11 12 -136 217 -136 222 0 3 20 6 44 6 40 0 44 2 48 29 l4 28 -104
7 c-58 3 -192 6 -299 6 l-193 0 0 -44z"/>
<path d="M3857 2341 c-6 -32 6 -41 57 -41 33 0 38 -3 33 -19 -3 -11 -47 -191
-98 -400 l-93 -381 -42 0 c-38 0 -42 -3 -47 -27 -3 -16 -3 -30 -1 -32 8 -8
574 -13 574 -5 0 5 3 19 6 32 6 20 3 22 -30 22 -35 0 -36 1 -29 28 3 15 45
194 92 397 l86 370 38 3 c32 3 38 7 45 35 6 21 5 33 -2 34 -6 1 -140 4 -298 6
l-286 4 -5 -26z"/>
<path d="M5455 2346 c-169 -54 -310 -187 -400 -377 -66 -139 -79 -276 -39
-394 24 -70 110 -154 189 -186 107 -42 299 -26 433 38 78 36 170 131 210 213
29 62 59 157 51 164 -2 2 -111 6 -241 9 l-237 6 -16 -51 c-8 -28 -15 -53 -15
-55 0 -2 20 -3 45 -3 l45 0 0 -53 c0 -69 -56 -191 -91 -200 -60 -16 -109 10
-109 60 0 43 178 625 204 663 53 80 165 126 248 101 51 -16 112 -80 136 -143
11 -31 22 -46 26 -39 7 11 86 240 86 249 0 2 -12 -5 -27 -16 -16 -11 -45 -24
-66 -30 -32 -9 -43 -7 -81 14 -51 29 -160 54 -231 53 -27 0 -82 -10 -120 -23z"/>
<path d="M5391 1651 c-18 -5 -28 -20 -43 -70 -20 -65 -16 -87 15 -76 27 11 85
157 61 154 -5 -1 -20 -4 -33 -8z"/>
<path d="M6345 1932 l-281 -437 -64 -5 c-59 -5 -64 -7 -73 -33 -5 -16 -7 -31
-4 -34 3 -2 87 -7 186 -10 178 -6 181 -6 181 15 0 11 3 27 6 36 5 12 -5 16
-55 18 l-61 3 71 100 c39 55 76 106 82 112 9 9 46 11 145 6 l132 -6 0 -104 0
-103 -60 0 -60 0 0 -45 0 -45 281 0 280 0 -3 38 c-3 35 -5 37 -40 40 -21 2
-38 6 -38 10 0 18 -102 859 -105 870 -3 9 -37 12 -122 12 l-118 0 -280 -438z
m285 18 l0 -160 -72 1 c-40 0 -89 3 -109 7 l-36 7 104 153 c58 83 106 152 109
152 2 0 4 -72 4 -160z"/>
<path d="M6543 1900 c-18 -27 -33 -52 -33 -55 0 -3 16 -5 35 -5 l35 0 0 55 c0
30 -1 55 -2 55 -2 0 -18 -23 -35 -50z"/>
<path d="M7577 2326 c-117 -48 -175 -117 -202 -241 -27 -121 -1 -184 134 -328
94 -100 136 -165 126 -197 -8 -26 -70 -78 -101 -86 -68 -17 -159 45 -213 146
-18 33 -36 60 -41 60 -4 0 -20 -51 -34 -112 -15 -62 -29 -124 -33 -136 -6 -24
-6 -24 25 -8 53 27 101 20 229 -35 111 -48 122 -51 183 -46 121 9 205 63 251
162 37 76 40 174 9 266 -38 111 -87 171 -211 260 -103 73 -129 102 -129 146 0
42 32 94 71 115 101 54 259 -23 259 -127 0 -21 6 -35 16 -39 9 -4 18 -5 20 -4
4 4 84 210 84 216 0 3 -8 -2 -18 -11 -10 -9 -33 -22 -51 -28 -26 -9 -35 -8
-49 4 -57 51 -228 63 -325 23z"/>
<path d="M8096 2049 c-55 -65 -11 -169 73 -169 28 0 68 37 81 74 9 27 8 42 -4
69 -27 66 -105 79 -150 26z m108 -21 c11 -15 12 -26 5 -40 -8 -14 -6 -26 6
-44 14 -22 14 -24 -1 -24 -9 0 -25 11 -36 25 -11 14 -24 25 -29 25 -5 0 -9
-11 -9 -25 0 -16 -6 -25 -15 -25 -12 0 -15 14 -15 65 l0 65 39 0 c29 0 44 -6
55 -22z"/>
<path d="M8140 2010 c0 -5 9 -10 20 -10 11 0 20 5 20 10 0 6 -9 10 -20 10 -11
0 -20 -4 -20 -10z"/>
<path d="M4450 1866 c-12 -39 -25 -84 -31 -100 -5 -16 -9 -31 -9 -33 0 -2 91
-2 202 -1 l202 3 23 94 c13 51 23 95 21 96 -2 1 -90 5 -195 8 l-193 5 -20 -72z"/>
<path d="M2850 793 c-31 -12 -50 -37 -50 -65 0 -22 7 -33 31 -46 62 -34 75
-48 60 -66 -19 -22 -58 -20 -71 4 -12 22 -50 28 -50 7 0 -7 7 -22 15 -34 33
-47 133 -37 155 17 15 36 1 64 -43 86 -46 24 -56 34 -50 50 7 18 47 18 63 -1
15 -19 50 -20 50 -2 0 33 -72 65 -110 50z"/>
<path d="M3055 791 c-32 -13 -47 -37 -43 -68 2 -21 14 -34 46 -52 24 -13 46
-30 49 -38 13 -34 -60 -46 -77 -13 -12 22 -50 28 -50 7 0 -49 72 -79 132 -54
62 26 60 90 -5 123 -46 24 -56 34 -50 50 7 18 47 18 63 -1 15 -19 50 -20 50
-2 0 35 -74 66 -115 48z"/>
<path d="M3363 785 c-44 -19 -73 -69 -73 -125 1 -53 16 -76 58 -91 88 -31 178
68 151 167 -8 27 -19 39 -44 50 -42 17 -51 17 -92 -1z m82 -45 c38 -42 -13
-146 -68 -138 -29 4 -52 47 -43 82 9 35 49 76 74 76 10 0 27 -9 37 -20z"/>
<path d="M4691 783 c-51 -27 -74 -64 -75 -122 -1 -82 59 -120 137 -88 45 19
69 56 75 116 3 39 0 52 -19 74 -31 35 -75 43 -118 20z m64 -29 c41 -16 36
-108 -8 -139 -70 -49 -120 44 -61 114 26 31 39 36 69 25z"/>
<path d="M5812 785 c-64 -28 -91 -146 -46 -196 35 -39 128 -28 153 19 14 27
14 29 -5 36 -10 4 -25 -3 -40 -19 -13 -14 -30 -25 -38 -25 -24 0 -46 29 -46
61 0 74 71 129 102 79 13 -21 43 -27 53 -11 9 16 -38 61 -70 66 -16 3 -45 -2
-63 -10z"/>
<path d="M7025 793 c-55 -14 -104 -101 -90 -163 19 -88 150 -89 197 0 49 94
-12 188 -107 163z m58 -45 c30 -23 26 -85 -8 -122 -67 -72 -134 27 -69 103 28
33 50 39 77 19z"/>
<path d="M7333 793 c-51 -10 -62 -73 -19 -110 15 -13 33 -23 40 -23 8 0 19 -7
26 -15 10 -12 10 -18 0 -30 -18 -21 -58 -19 -72 5 -16 25 -48 26 -48 2 0 -51
104 -78 148 -39 45 41 32 89 -34 117 -33 14 -45 25 -42 37 4 23 51 29 68 9 13
-17 50 -22 50 -7 0 35 -64 65 -117 54z"/>
<path d="M1647 703 c-9 -49 -20 -98 -23 -110 -6 -22 -4 -23 63 -23 99 0 143
40 143 130 0 63 -32 90 -108 90 l-58 0 -17 -87z m123 37 c25 -25 25 -56 0 -97
-19 -32 -57 -50 -84 -40 -13 5 -13 14 0 69 8 35 16 69 19 76 7 19 43 14 65 -8z"/>
<path d="M1872 688 c-12 -57 -22 -107 -22 -111 0 -14 173 -3 178 11 3 9 -14
12 -62 12 -69 0 -72 2 -60 48 6 20 13 22 64 22 42 0 59 4 64 15 4 12 -5 15
-54 15 -60 0 -66 4 -54 34 5 12 20 16 64 16 54 0 70 8 70 36 0 2 -37 4 -83 4
l-84 0 -21 -102z"/>
<path d="M2197 713 c-24 -43 -52 -93 -61 -110 -16 -33 -16 -33 7 -33 16 0 28
9 35 25 10 21 18 25 56 25 38 0 45 -3 50 -25 4 -17 13 -25 27 -25 18 0 21 4
16 28 -3 15 -11 64 -18 110 -12 80 -13 82 -40 82 -24 0 -33 -11 -72 -77z m73
-29 c0 -30 -3 -34 -25 -34 -29 0 -31 10 -10 51 19 37 35 29 35 -17z"/>
<path d="M2406 773 c-3 -10 -14 -60 -25 -111 l-19 -93 81 3 c53 2 82 7 85 16
3 9 -12 12 -52 12 -64 0 -63 -2 -41 100 8 36 14 71 15 78 0 19 -38 14 -44 -5z"/>
<path d="M2595 768 c-3 -13 -13 -62 -23 -110 l-19 -88 89 0 c72 0 88 3 88 15
0 12 -13 15 -60 15 -52 0 -60 2 -60 19 0 44 10 51 71 51 46 0 59 3 59 15 0 12
-13 15 -56 15 -52 0 -55 1 -52 23 3 20 9 22 64 25 52 2 63 6 67 22 5 19 0 20
-79 20 -79 0 -84 -1 -89 -22z"/>
<path d="M3225 768 c-3 -13 -13 -62 -24 -110 l-19 -88 23 0 c21 0 25 7 35 58
6 31 16 73 21 92 14 54 11 70 -11 70 -12 0 -22 -8 -25 -22z"/>
<path d="M3650 786 c0 -2 -9 -48 -20 -101 -11 -53 -20 -101 -20 -106 0 -14
122 -10 150 4 38 19 62 73 57 127 -7 61 -32 80 -108 80 -32 0 -59 -2 -59 -4z
m94 -36 c23 -8 26 -15 26 -55 0 -57 -32 -95 -81 -95 -27 0 -31 3 -26 23 3 12
11 48 17 80 12 60 19 65 64 47z"/>
<path d="M3892 703 c-80 -143 -76 -133 -49 -133 16 0 28 9 35 25 10 21 18 25
56 25 38 0 45 -3 50 -25 4 -17 13 -25 27 -25 18 0 21 4 16 28 -3 15 -11 64
-18 110 -12 80 -13 82 -40 82 -24 0 -34 -10 -77 -87z m78 -19 c0 -30 -3 -34
-25 -34 -29 0 -31 10 -10 51 19 37 35 29 35 -17z"/>
<path d="M4105 768 c-3 -13 -14 -63 -24 -111 l-19 -88 81 3 c53 2 82 7 85 16
3 9 -12 12 -52 12 -64 0 -63 -2 -41 100 19 85 18 90 -5 90 -12 0 -22 -9 -25
-22z"/>
<path d="M4380 786 c0 -2 -9 -48 -20 -101 -24 -119 -24 -115 -1 -115 17 0 22
12 32 75 15 87 29 81 29 -12 0 -60 1 -63 24 -63 20 0 29 12 56 75 18 42 35 73
38 71 4 -4 -9 -73 -25 -128 -3 -13 1 -18 16 -18 23 0 24 5 45 119 20 107 21
101 -17 101 -31 0 -35 -4 -67 -72 l-35 -73 -3 73 -3 72 -34 0 c-19 0 -35 -2
-35 -4z"/>
<path d="M4880 733 c-6 -32 -16 -74 -21 -93 -18 -70 -18 -70 71 -70 64 0 80 3
80 15 0 12 -13 15 -55 15 -37 0 -55 4 -55 13 0 6 9 49 19 95 l19 82 -23 0
c-21 0 -25 -7 -35 -57z"/>
<path d="M5066 718 c-31 -136 -31 -148 -7 -148 13 0 22 8 26 23 3 12 13 61 23
110 l19 87 -23 0 c-19 0 -24 -9 -38 -72z"/>
<path d="M5170 786 c0 -2 -9 -48 -20 -101 -24 -119 -24 -115 -1 -115 16 0 22
11 31 58 18 91 20 92 50 17 22 -57 32 -71 52 -73 23 -3 25 1 42 95 11 54 21
104 24 111 3 10 -2 13 -19 10 -20 -3 -25 -12 -36 -67 -7 -36 -15 -66 -17 -68
-2 -2 -16 28 -31 66 -24 60 -32 71 -52 71 -12 0 -23 -2 -23 -4z"/>
<path d="M5460 786 c0 -2 14 -33 31 -70 18 -39 28 -74 25 -86 -3 -11 -9 -29
-12 -40 -4 -16 -1 -20 19 -20 22 0 26 6 32 40 4 24 25 63 56 104 27 36 49 68
49 71 0 3 -11 5 -25 5 -17 0 -33 -12 -56 -46 l-32 -46 -20 46 c-15 36 -25 46
-43 46 -13 0 -24 -2 -24 -4z"/>
<path d="M6000 786 c0 -2 -9 -48 -20 -101 -11 -53 -20 -101 -20 -106 0 -5 36
-9 80 -9 64 0 80 3 80 15 0 12 -13 15 -55 15 -30 0 -55 4 -55 8 0 4 9 47 19
95 l19 87 -24 0 c-13 0 -24 -2 -24 -4z"/>
<path d="M6193 680 c-60 -107 -61 -110 -37 -110 16 0 28 8 36 25 10 23 17 26
57 23 39 -3 46 -6 49 -25 2 -16 10 -23 24 -23 23 0 22 10 -3 158 -10 58 -13
62 -38 62 -23 0 -33 -13 -88 -110z m91 13 c6 -43 6 -43 -24 -43 -16 0 -30 2
-30 5 0 10 41 87 44 83 2 -1 6 -22 10 -45z"/>
<path d="M6405 705 c-17 -78 -17 -86 -2 -109 22 -33 72 -42 119 -23 29 12 38
24 51 64 9 26 18 64 22 83 4 19 9 43 11 53 4 13 -1 17 -19 17 -23 0 -26 -6
-38 -71 -7 -39 -21 -82 -31 -95 -22 -28 -66 -32 -75 -8 -6 15 10 125 23 159 5
11 0 15 -19 15 -23 0 -26 -6 -42 -85z"/>
<path d="M6645 768 c-3 -13 -13 -62 -24 -110 l-19 -88 64 0 c35 0 74 5 88 12
37 16 70 89 61 134 -10 56 -35 74 -105 74 -54 0 -60 -2 -65 -22z m103 -24 c51
-36 4 -144 -64 -144 -26 0 -26 1 -20 43 19 117 34 136 84 101z"/>
<path d="M6856 698 c-11 -50 -21 -100 -24 -110 -3 -14 1 -18 20 -18 22 0 25 6
41 88 9 48 20 97 23 110 5 18 2 22 -18 22 -22 0 -25 -7 -42 -92z"/>
<path d="M7595 778 c-2 -7 -11 -49 -20 -93 -9 -44 -19 -88 -22 -97 -3 -14 2
-18 21 -18 22 0 26 5 32 45 5 39 9 45 30 45 19 0 29 -10 46 -45 17 -34 28 -45
45 -45 21 0 22 2 11 28 -7 15 -15 31 -20 37 -13 15 -9 35 6 35 19 0 46 39 46
66 0 38 -30 54 -104 54 -44 0 -68 -4 -71 -12z m123 -50 c-2 -15 -13 -25 -35
-31 -44 -13 -62 -4 -56 27 5 23 10 26 50 26 40 0 44 -2 41 -22z"/>
<path d="M7891 690 c-11 -56 -21 -105 -21 -110 0 -6 35 -10 80 -10 64 0 80 3
80 15 0 12 -13 15 -55 15 -30 0 -55 3 -55 8 1 4 9 46 19 95 l18 87 -22 0 c-20
0 -24 -10 -44 -100z"/>
<path d="M7467 590 c-4 -16 0 -20 19 -20 17 0 24 6 24 20 0 13 -7 20 -19 20
-10 0 -21 -9 -24 -20z"/>
<path d="M7787 603 c-14 -13 -6 -33 12 -33 16 0 31 18 31 36 0 7 -36 5 -43 -3z"/>
<path d="M1838 373 c-36 -23 -48 -53 -48 -119 0 -89 33 -134 100 -134 59 0 82
27 94 113 l5 37 -55 0 c-51 0 -54 -1 -54 -25 0 -16 6 -25 15 -25 20 0 19 -29
-1 -37 -9 -3 -20 0 -25 8 -13 21 -11 103 4 123 12 16 14 16 26 3 10 -12 18
-13 42 -5 34 12 37 28 10 52 -28 25 -81 30 -113 9z"/>
<path d="M2249 361 c-39 -40 -37 -72 7 -121 33 -37 38 -60 12 -60 -6 0 -20 8
-30 17 -19 17 -19 16 -16 -27 l3 -45 42 -3 c35 -3 48 2 68 22 38 38 34 86 -10
127 -43 41 -44 53 -5 46 29 -6 30 -5 30 27 0 55 -54 64 -101 17z"/>
<path d="M2586 368 c-15 -13 -29 -37 -32 -54 -5 -27 0 -38 31 -72 34 -38 39
-62 13 -62 -6 0 -20 8 -30 17 -19 17 -19 16 -16 -27 l3 -45 46 -3 c41 -3 50 1
68 24 34 43 28 90 -16 130 -30 28 -33 34 -20 40 10 3 24 4 32 0 12 -4 15 2 15
28 0 51 -49 63 -94 24z"/>
<path d="M2975 383 c-54 -13 -91 -84 -82 -160 7 -69 67 -121 123 -107 19 5 24
13 24 39 0 29 -3 32 -24 28 -17 -4 -28 2 -40 18 -33 48 -7 125 40 116 21 -4
24 -1 24 28 0 21 -6 35 -16 39 -17 6 -18 6 -49 -1z"/>
<path d="M3130 378 c-56 -29 -76 -127 -41 -204 22 -48 58 -65 108 -52 73 19
95 166 35 237 -22 27 -70 35 -102 19z m61 -79 c13 -24 6 -96 -10 -112 -30 -30
-56 65 -31 114 14 25 27 24 41 -2z"/>
<path d="M4779 375 c-25 -13 -38 -37 -54 -93 -10 -35 13 -117 41 -143 28 -26
84 -30 111 -7 55 45 56 190 1 235 -24 20 -71 24 -99 8z m59 -67 c14 -14 16
-96 3 -117 -27 -42 -60 39 -40 97 12 35 19 38 37 20z"/>
<path d="M4986 368 c-15 -13 -29 -37 -32 -54 -5 -27 0 -38 31 -72 34 -38 39
-62 13 -62 -6 0 -20 8 -30 17 -19 17 -19 16 -16 -27 l3 -45 46 -3 c41 -3 50 1
68 24 33 43 28 90 -15 129 -36 33 -33 52 6 40 17 -6 20 -2 20 28 0 52 -49 65
-94 25z"/>
<path d="M8429 361 c-41 -41 -39 -78 8 -125 29 -28 34 -39 25 -48 -10 -10 -17
-10 -32 0 -29 18 -32 16 -28 -25 3 -37 4 -38 45 -41 96 -7 126 98 46 161 -12
10 -23 23 -23 28 0 13 34 11 48 -3 9 -9 12 -3 12 29 0 62 -51 74 -101 24z"/>
<path d="M65 368 c2 -7 16 -66 30 -130 l27 -118 37 0 36 0 33 119 c17 66 32
124 32 131 0 7 -14 10 -37 8 l-38 -3 -10 -70 c-12 -80 -20 -77 -30 13 l-7 62
-39 0 c-26 0 -37 -4 -34 -12z"/>
<path d="M290 250 l0 -130 65 0 65 0 0 30 c0 27 -3 30 -30 30 -23 0 -30 4 -30
20 0 15 7 20 25 20 21 0 25 5 25 30 0 25 -4 30 -25 30 -18 0 -25 5 -25 20 0
16 7 20 30 20 27 0 30 3 30 30 l0 30 -65 0 -65 0 0 -130z"/>
<path d="M460 250 l0 -130 36 0 37 0 -6 67 c-4 60 -4 65 8 43 7 -14 19 -44 26
-67 11 -39 15 -43 46 -43 l33 0 0 130 0 130 -36 0 -37 0 6 -72 6 -73 -25 73
c-25 70 -26 72 -60 72 l-34 0 0 -130z"/>
<path d="M670 350 c0 -23 4 -30 20 -30 19 0 20 -7 20 -100 l0 -100 40 0 40 0
0 100 c0 93 1 100 20 100 16 0 20 7 20 30 l0 30 -80 0 -80 0 0 -30z"/>
<path d="M866 263 c-16 -65 -31 -124 -34 -131 -3 -8 8 -12 37 -12 30 0 41 4
41 15 0 9 9 15 25 15 16 0 25 -6 25 -15 0 -11 11 -15 41 -15 34 0 40 3 35 18
-2 9 -14 60 -26 112 -31 139 -26 130 -74 130 l-42 0 -28 -117z m83 -35 c0 -10
-6 -18 -15 -18 -13 0 -15 7 -10 31 3 17 7 39 7 48 1 17 16 -33 18 -61z"/>
<path d="M1230 250 l0 -130 61 0 c53 0 64 4 88 28 38 37 48 104 25 161 -20 51
-55 71 -124 71 l-50 0 0 -130z m110 0 c0 -30 -6 -52 -15 -60 -13 -11 -15 -3
-15 60 0 63 2 71 15 60 9 -8 15 -30 15 -60z"/>
<path d="M1450 250 l0 -130 65 0 65 0 0 30 c0 27 -3 30 -30 30 -23 0 -30 4
-30 20 0 15 7 20 25 20 21 0 25 5 25 30 0 25 -4 30 -25 30 -18 0 -25 5 -25 20
0 16 7 20 30 20 27 0 30 3 30 30 l0 30 -65 0 -65 0 0 -130z"/>
<path d="M2031 255 c-17 -68 -31 -127 -31 -130 0 -13 71 -4 76 10 8 20 54 20
54 0 0 -11 11 -15 41 -15 34 0 40 3 35 18 -3 9 -15 60 -26 112 -12 52 -24 103
-26 113 -4 13 -16 17 -48 17 l-44 0 -31 -125z m83 -2 c5 -36 3 -43 -10 -43
-13 0 -15 6 -10 31 3 17 6 38 6 47 0 27 7 9 14 -35z"/>
<path d="M2390 250 l0 -130 65 0 65 0 0 30 c0 27 -3 30 -30 30 -23 0 -30 5
-30 19 0 14 8 21 28 23 21 2 28 9 30 31 3 24 0 27 -27 27 -24 0 -31 4 -31 20
0 16 7 20 30 20 27 0 30 3 30 30 l0 30 -65 0 -65 0 0 -130z"/>
<path d="M3316 358 c-5 -24 -26 -208 -26 -228 0 -7 14 -10 38 -8 l37 3 5 70 5
70 8 -55 c13 -85 15 -90 47 -90 25 0 28 4 35 46 12 85 24 95 24 22 l1 -68 41
0 c41 0 41 0 36 33 -3 17 -9 64 -12 102 -11 126 -11 125 -60 125 l-44 0 -7
-47 c-8 -62 -23 -90 -24 -47 0 17 -3 46 -6 63 -6 29 -9 31 -50 31 -37 0 -44
-3 -48 -22z"/>
<path d="M3590 251 l0 -131 40 0 c40 0 40 0 40 40 0 37 2 40 38 50 60 16 83
92 43 141 -16 19 -30 24 -90 27 l-71 4 0 -131z m104 52 c4 -9 0 -23 -9 -32
-13 -14 -15 -12 -15 17 0 34 14 43 24 15z"/>
<path d="M3800 250 l0 -130 35 0 c35 0 35 0 36 48 l1 47 16 -47 c15 -46 17
-48 54 -48 21 0 38 2 38 5 0 3 -11 28 -25 55 -14 28 -21 50 -15 50 16 0 38 58
32 86 -8 42 -47 64 -113 64 l-59 0 0 -130z m100 40 c0 -10 -7 -20 -15 -24 -12
-4 -15 3 -15 31 0 30 2 34 15 23 8 -7 15 -20 15 -30z"/>
<path d="M4010 250 l0 -130 35 0 35 0 0 130 0 130 -35 0 -35 0 0 -130z"/>
<path d="M4121 273 c-7 -60 -14 -118 -17 -131 -4 -20 -1 -22 36 -22 l40 0 0
48 c0 75 17 84 25 13 7 -59 8 -61 35 -61 27 0 29 4 40 58 6 31 13 62 14 67 2
6 6 -20 10 -57 l8 -68 34 0 c40 0 38 -9 22 147 l-11 114 -46 -3 -46 -3 -10
-60 -11 -60 -8 50 c-11 75 -11 75 -59 75 l-44 0 -12 -107z"/>
<path d="M4400 250 l0 -130 40 0 40 0 0 130 0 130 -40 0 -40 0 0 -130z"/>
<path d="M4520 250 l0 -130 53 0 c62 0 93 18 113 66 29 68 8 151 -45 178 -16
9 -50 16 -76 16 l-45 0 0 -130z m106 9 c4 -26 1 -41 -15 -59 l-20 -25 -1 75
c0 67 2 73 15 59 9 -8 18 -31 21 -50z"/>
<path d="M5310 313 c22 -50 30 -84 30 -130 l0 -63 35 0 35 0 0 54 c0 39 9 73
30 121 17 37 30 71 30 76 0 5 -16 9 -35 9 -19 0 -35 -4 -35 -9 0 -5 -5 -22
-11 -38 l-11 -28 -12 35 c-11 30 -18 35 -49 38 l-36 3 29 -68z"/>
<path d="M5670 250 l0 -130 35 0 35 0 0 50 c0 47 2 50 25 50 21 0 25 5 25 30
0 25 -4 30 -25 30 -37 0 -35 38 3 42 21 2 28 9 30 31 l3 27 -65 0 -66 0 0
-130z"/>
<path d="M5830 250 l0 -130 65 0 65 0 0 30 c0 27 -3 30 -30 30 -23 0 -30 4
-30 20 0 16 7 20 30 20 27 0 30 3 30 29 0 25 -4 30 -27 33 -17 2 -29 10 -31
21 -3 13 3 17 27 17 28 0 31 3 31 30 l0 30 -65 0 -65 0 0 -130z"/>
<path d="M6000 250 l0 -130 35 0 35 0 0 47 c0 52 11 49 30 -9 11 -35 14 -38
51 -38 l39 0 -26 51 -25 51 20 19 c30 28 28 83 -4 114 -21 22 -33 25 -90 25
l-65 0 0 -130z m100 59 c12 -21 -1 -49 -21 -49 -10 0 -12 53 -2 63 9 10 11 9
23 -14z"/>
<path d="M6220 250 l0 -130 35 0 c35 0 35 0 36 48 l1 47 16 -47 c15 -46 17
-48 54 -48 21 0 38 3 38 8 -1 4 -11 27 -24 51 -22 43 -22 45 -4 63 11 11 18
32 18 57 0 57 -33 81 -111 81 l-59 0 0 -130z m100 45 c0 -7 -7 -18 -15 -25
-13 -11 -15 -7 -15 25 0 32 2 36 15 25 8 -7 15 -18 15 -25z"/>
<path d="M6430 250 l0 -130 65 0 65 0 0 30 c0 27 -3 30 -30 30 -23 0 -30 4
-30 20 0 15 7 20 25 20 21 0 25 5 25 30 0 25 -4 30 -25 30 -18 0 -25 5 -25 20
0 16 7 20 30 20 27 0 30 3 30 30 l0 30 -65 0 -65 0 0 -130z"/>
<path d="M6580 350 c0 -23 4 -30 20 -30 19 0 20 -7 20 -100 l0 -100 40 0 40 0
0 100 c0 93 1 100 20 100 16 0 20 7 20 30 l0 30 -80 0 -80 0 0 -30z"/>
<path d="M6760 250 l0 -130 65 0 65 0 0 30 c0 27 -3 30 -30 30 -23 0 -30 4
-30 20 0 15 7 20 25 20 21 0 25 5 25 30 0 25 -4 30 -25 30 -18 0 -25 5 -25 20
0 16 7 20 30 20 27 0 30 3 30 30 l0 30 -65 0 -65 0 0 -130z"/>
<path d="M6930 250 l0 -130 34 0 c34 0 35 1 38 48 l3 47 16 -45 c14 -41 19
-45 52 -48 20 -2 37 -1 37 1 0 3 -9 26 -21 52 -18 41 -19 49 -6 63 24 27 30
61 16 94 -15 36 -43 48 -115 48 l-54 0 0 -130z m98 42 c-5 -41 -28 -39 -28 2
0 28 3 34 16 29 9 -3 14 -15 12 -31z"/>
<path d="M7140 250 l0 -130 35 0 35 0 0 130 0 130 -35 0 -35 0 0 -130z"/>
<path d="M7291 343 c-29 -110 -51 -203 -51 -212 0 -6 16 -11 35 -11 24 0 35 5
35 15 0 20 49 20 56 0 8 -19 74 -21 74 -2 0 6 -12 65 -27 130 l-27 117 -42 0
c-41 0 -44 -2 -53 -37z m59 -93 c0 -22 -4 -40 -10 -40 -11 0 -14 63 -3 73 11
12 13 8 13 -33z"/>
<path d="M7640 250 l0 -130 35 0 35 0 0 130 0 130 -35 0 -35 0 0 -130z"/>
<path d="M7750 250 l0 -130 35 0 34 0 3 68 3 67 23 -67 c23 -66 25 -68 58 -68
l34 0 0 130 0 130 -36 0 -37 0 5 -70 c3 -38 4 -70 2 -70 -1 0 -13 32 -25 70
l-23 70 -38 0 -38 0 0 -130z"/>
<path d="M7980 250 l0 -130 50 0 c98 0 136 44 128 147 -4 48 -10 61 -37 85
-26 23 -40 28 -86 28 l-55 0 0 -130z m100 51 c20 -38 6 -121 -20 -121 -6 0
-10 32 -10 70 0 70 10 87 30 51z"/>
<path d="M8192 270 c3 -96 6 -112 25 -131 32 -33 99 -30 130 5 21 25 23 37 23
132 l0 104 -35 0 -34 0 -3 -97 c-2 -66 -7 -98 -15 -101 -10 -3 -13 21 -13 97
l0 101 -41 0 -41 0 4 -110z"/>
<path d="M8560 350 c0 -20 5 -30 15 -30 12 0 15 -18 15 -100 l0 -100 40 0 40
0 0 100 c0 93 1 100 20 100 16 0 20 7 20 30 l0 30 -75 0 -75 0 0 -30z"/>
<path d="M8730 250 l0 -130 35 0 35 0 0 47 c0 52 11 49 30 -9 11 -35 14 -38
51 -38 l39 0 -25 50 -26 51 21 26 c27 35 26 78 -5 108 -21 22 -33 25 -90 25
l-65 0 0 -130z m99 29 c-14 -28 -29 -23 -29 9 0 37 11 48 27 26 9 -12 9 -22 2
-35z"/>
<path d="M8940 250 l0 -130 35 0 35 0 0 130 0 130 -35 0 -35 0 0 -130z"/>
<path d="M9071 255 c-17 -68 -31 -127 -31 -130 0 -13 71 -4 76 10 8 20 54 20
54 0 0 -11 11 -15 40 -15 27 0 38 4 35 13 -2 6 -15 65 -30 130 l-27 117 -43 0
-43 0 -31 -125z m83 -2 c5 -35 3 -43 -9 -43 -16 0 -18 12 -9 59 8 39 9 37 18
-16z"/>
<path d="M9270 250 l0 -130 60 0 60 0 0 30 c0 25 -4 30 -25 30 l-25 0 0 100 0
100 -35 0 -35 0 0 -130z"/>
</g>
</svg>
